PathFileType	4	(X/Y/Z)	 s01c0102.trc
DataRate	CameraRate	NumFrames	NumMarkers	Units	OrigDataRate	OrigDataStartFrame	OrigNumFrames
200	200	4	48	mm	200	1001	2000
Frame#	Time	racr			lacr			c7			jug			rlel			rdr			llel			ldr			s2			lic			ric			lasi			rasi			rpsi			lpsi			rgt			lgt			rth1			rth2			rth3			rth4			rlfc			rsh1			rsh2			rsh3			rsh4			rlmal			rmmal			rcal			rtoe			rmt5			lth1			lth2			lth4			lth3			llfc			lsh1			lsh2			lsh3			lsh4			llmal			lmmal			lcal			ltoe			lmt5			SBIKE			LBIKE			RBIKE			
		X1	Y1	Z1	X2	Y2	Z2	X3	Y3	Z3	X4	Y4	Z4	X5	Y5	Z5	X6	Y6	Z6	X7	Y7	Z7	X8	Y8	Z8	X9	Y9	Z9	X10	Y10	Z10	X11	Y11	Z11	X12	Y12	Z12	X13	Y13	Z13	X14	Y14	Z14	X15	Y15	Z15	X16	Y16	Z16	X17	Y17	Z17	X18	Y18	Z18	X19	Y19	Z19	X20	Y20	Z20	X21	Y21	Z21	X22	Y22	Z22	X23	Y23	Z23	X24	Y24	Z24	X25	Y25	Z25	X26	Y26	Z26	X27	Y27	Z27	X28	Y28	Z28	X29	Y29	Z29	X30	Y30	Z30	X31	Y31	Z31	X32	Y32	Z32	X33	Y33	Z33	X34	Y34	Z34	X35	Y35	Z35	X36	Y36	Z36	X37	Y37	Z37	X38	Y38	Z38	X39	Y39	Z39	X40	Y40	Z40	X41	Y41	Z41	X42	Y42	Z42	X43	Y43	Z43	X44	Y44	Z44	X45	Y45	Z45	X46	Y46	Z46	X47	Y47	Z47	X48	Y48	Z48	
1001	5.0050	479.141771	1358.638500	-125.843610	522.680022	1288.406869	-418.877647	449.776623	1402.079035	-284.145322	452.276346	1234.811400	-269.570479	545.325426	1092.481959	-21.691291	723.050056	889.969482	-63.975504	562.794940	1032.451012	-539.871488	729.621947	863.912823	-441.308628	-71.258147	1179.190001	-296.709129	101.935394	1174.851617	-459.758328	74.955727	1213.983727	-129.817508	104.000994	1126.368069	-432.986245	109.018307	1167.073204	-157.766824	-48.764286	1227.051065	-250.206207	-45.058821	1217.689775	-354.424176	42.072160	1119.085190	-92.963977	38.983920	1032.508814	-469.001706	161.105750	1061.101513	-79.525970	242.161585	1044.083254	-84.735495	328.476797	1019.440528	-94.365700	254.503661	1094.696120	-107.488880	419.116138	956.572203	-119.577028	364.989807	863.380999	-87.628314	325.639304	787.649572	-85.126603	275.908386	713.786044	-92.829546	366.554605	762.851120	-121.994732	197.417871	596.278575	-107.129274	238.841497	600.143881	-186.914932	146.483841	565.372149	-161.365435	408.702618	502.596640	-132.628122	298.065912	492.024502	-68.295163	85.884129	915.006201	-470.004729	143.934803	847.165229	-468.525637	185.976272	882.045328	-472.675416	194.392601	780.854508	-447.562041	241.161986	678.864039	-430.267020	185.221726	587.148223	-457.631578	160.580650	504.697613	-448.245069	133.717668	424.139243	-433.100374	215.334323	491.210023	-423.062021	98.815901	303.428840	-415.608653	130.387171	306.668848	-339.912015	50.213959	295.447217	-373.792626	285.653936	147.118807	-374.491724	183.809045	175.466251	-441.950795	-226.240562	893.271816	-256.124450	-12.975443	84.256500	-456.654594	-21.999884	81.598309	-56.525978	
1002	5.0100	479.098566	1359.578516	-125.766490	522.715840	1287.898183	-417.760222	449.639338	1402.070172	-283.915754	451.666370	1234.367765	-268.657085	545.482608	1093.298516	-21.591807	722.807724	890.495659	-64.329391	562.743954	1032.954097	-539.782404	730.035510	864.425019	-441.720741	-71.457272	1179.851915	-295.996271	100.971973	1176.213707	-459.805930	75.513495	1215.578696	-129.767398	103.369327	1126.928723	-432.869069	108.964525	1167.266660	-156.782963	-48.588766	1227.703376	-249.772242	-44.967393	1218.125940	-354.077161	42.176915	1119.063145	-92.987721	38.768213	1033.238102	-468.576644	161.414735	1058.720213	-79.371289	242.194632	1040.615432	-85.009056	328.096563	1014.894939	-95.031670	255.114571	1091.184422	-107.358264	418.341906	950.824300	-120.511644	364.291899	856.635341	-87.691693	326.270740	780.312184	-85.022846	277.947672	705.458072	-92.531885	367.680142	756.195300	-121.810806	202.133276	586.679718	-106.317852	243.241885	592.091573	-186.947936	152.109894	554.321937	-160.509873	416.544018	501.163168	-132.308487	306.426058	486.433456	-67.653291	87.591847	916.178186	-469.219034	147.264554	849.643844	-467.159330	188.371439	885.103984	-471.522262	198.653946	784.070877	-446.870591	245.646482	682.120396	-429.428629	186.717954	591.466583	-457.184615	160.173634	509.582706	-447.966554	131.216351	429.797111	-432.893434	213.998360	495.457598	-422.316922	92.698855	310.125105	-415.369426	124.498642	312.320101	-339.436195	43.765905	302.840699	-373.320247	276.169626	149.597117	-374.920732	174.682658	180.353213	-441.932894	-226.351670	893.257129	-256.202133	-12.987500	84.230521	-456.692193	-22.011506	81.635368	-56.542648	
1003	5.0150	479.396015	1360.386229	-125.890283	522.864077	1287.954885	-416.586494	449.632136	1402.006297	-283.783019	451.315069	1234.067019	-267.952884	545.704942	1093.961906	-21.507171	722.609466	891.097980	-65.027993	562.761732	1033.623914	-539.706963	729.399003	863.922501	-441.997298	-71.610839	1180.415887	-295.051167	100.532597	1177.096904	-460.060246	76.241614	1216.954464	-129.615705	102.746650	1127.400220	-432.653148	109.205904	1167.094554	-156.346825	-48.292637	1228.214516	-249.151763	-44.762241	1218.262680	-353.271100	42.449892	1118.657494	-92.915768	38.496775	1033.802985	-467.592809	161.738425	1056.030195	-79.164032	242.172664	1036.754685	-85.104377	327.718975	1009.633615	-95.464572	255.922696	1087.279629	-107.038825	417.103727	944.478081	-121.225461	363.457703	849.071863	-87.913282	326.891606	772.020055	-85.019927	280.144913	696.132056	-92.402862	368.804895	748.644666	-121.637210	208.090981	576.487834	-106.188272	248.427048	582.954594	-186.993599	158.152554	542.962258	-159.990095	424.183729	498.719666	-131.907002	314.598877	480.220943	-67.069923	89.435379	917.349169	-468.474015	150.461702	852.154345	-466.201614	190.686022	888.441608	-469.819507	203.061882	787.432289	-446.309409	250.433134	685.580721	-428.772753	188.478176	595.793350	-456.874519	159.914476	514.678151	-447.877337	128.901621	435.603423	-432.832914	213.354872	498.881620	-421.821851	86.659896	317.240592	-415.192835	118.780263	318.419777	-339.015006	37.469812	310.590661	-372.930021	266.860847	152.863933	-375.224207	165.876098	185.809704	-441.792797	-226.427278	893.242290	-256.268262	-13.014750	84.243576	-456.667003	-21.801178	81.583447	-56.464257	
1004	5.0200	479.811576	1360.938503	-126.100816	522.796942	1287.747629	-415.713015	449.745061	1401.938758	-283.656960	451.098530	1233.746925	-267.147572	546.021554	1094.293803	-21.509467	722.566896	891.292824	-65.406550	562.937783	1034.443680	-539.688435	728.873962	863.646168	-442.312115	-71.607628	1180.832091	-294.020391	99.497977	1177.965813	-459.431514	77.125387	1217.814338	-129.210467	102.206100	1127.776930	-432.330594	109.546795	1166.701162	-155.828980	-47.942992	1228.594859	-248.262673	-44.791659	1218.385844	-352.263501	42.874246	1117.847642	-92.741358	38.378087	1034.249003	-467.406112	162.029650	1053.086189	-78.972791	242.153864	1032.536717	-85.028608	327.158535	1004.053945	-95.603546	256.730327	1082.992511	-106.631270	415.290502	937.607150	-120.964739	362.355836	840.709047	-87.722677	327.507514	762.896988	-85.023150	282.698120	685.962762	-92.012756	370.014518	740.466443	-121.600658	214.392499	565.922378	-105.702221	253.837483	573.298196	-187.015832	163.665255	531.789799	-159.081010	431.551154	495.358634	-131.498732	322.589095	473.339008	-66.590116	91.273722	918.578907	-467.699533	153.814297	854.786240	-465.323955	193.174264	891.787715	-468.062091	207.642253	790.958014	-445.993331	255.313900	689.170142	-428.286759	190.515168	600.075012	-456.723732	159.876374	519.814977	-447.886373	126.758058	441.643370	-432.799301	212.814441	502.606422	-421.469504	80.655359	324.791479	-415.119691	113.255958	324.949352	-338.665686	31.348971	318.669880	-372.629471	257.888894	156.875545	-375.439886	157.365727	191.752679	-441.709036	-226.459895	893.229791	-256.314340	-13.013778	84.232604	-456.667683	-22.027415	81.666335	-56.555193	
